<?xml version="1.0" standalone="no"?>
<!DOCTYPE svg PUBLIC "-//W3C//DTD SVG 20010904//EN"
 "http://www.w3.org/TR/2001/REC-SVG-20010904/DTD/svg10.dtd">
<svg version="1.0" xmlns="http://www.w3.org/2000/svg"
 width="1280.000000pt" height="1131.000000pt" viewBox="0 0 1280.000000 1131.000000"
 preserveAspectRatio="xMidYMid meet">
<g transform="translate(0.000000,1131.000000) scale(0.100000,-0.100000)"
fill="#000000" stroke="none">
<path d="M3530 11298 c-247 -54 -364 -111 -496 -242 -184 -184 -298 -477 -335
-861 -15 -153 -6 -572 16 -755 61 -514 188 -1060 392 -1683 41 -126 72 -234
70 -240 -3 -7 -80 -27 -173 -46 -1051 -212 -1932 -543 -2441 -920 -110 -82
-277 -242 -347 -334 -58 -76 -122 -189 -154 -272 -25 -64 -62 -237 -62 -290 0
-46 32 -199 56 -272 86 -256 338 -527 704 -758 135 -85 482 -256 679 -335 412
-165 908 -310 1484 -434 136 -29 250 -55 253 -58 2 -3 -27 -100 -65 -216 -308
-928 -448 -1705 -419 -2330 26 -581 211 -972 538 -1141 94 -49 142 -65 270
-91 131 -26 163 -25 332 5 695 126 1496 708 2472 1797 48 54 92 98 98 98 6 0
27 -19 47 -42 109 -129 360 -398 536 -573 818 -817 1544 -1259 2136 -1302 68
-5 233 22 327 53 241 81 432 276 537 549 93 241 126 458 126 820 -1 597 -133
1279 -419 2152 -50 152 -66 215 -58 222 6 5 49 16 96 26 788 156 1509 385
2015 640 316 159 506 287 687 463 203 197 296 356 348 597 25 112 25 148 0
263 -27 122 -44 172 -93 267 -117 226 -367 462 -695 658 -506 302 -1283 571
-2167 753 -99 20 -185 40 -191 45 -8 7 8 70 58 222 285 872 418 1556 419 2152
0 298 -15 438 -71 650 -89 338 -247 554 -496 678 -148 75 -372 113 -501 87
-26 -5 -95 -19 -151 -30 -620 -125 -1444 -727 -2310 -1688 -96 -105 -177 -192
-182 -192 -5 0 -86 87 -182 193 -196 218 -527 553 -698 708 -612 552 -1167
889 -1612 979 -56 11 -125 25 -151 30 -59 12 -166 11 -227 -2z m318 -333 c479
-101 1126 -548 1813 -1253 228 -234 519 -560 519 -581 0 -9 -59 -90 -132 -181
-250 -315 -571 -755 -777 -1065 -41 -60 -80 -115 -87 -121 -8 -6 -67 -14 -131
-18 -311 -19 -835 -76 -1228 -133 -137 -21 -270 -37 -295 -38 l-45 0 -78 235
c-213 637 -344 1212 -398 1740 -19 183 -16 548 4 691 65 444 237 687 522 739
66 12 222 5 313 -15z m5493 -5 c242 -80 391 -322 445 -720 20 -150 20 -506 0
-701 -43 -421 -143 -899 -286 -1374 -74 -246 -181 -568 -193 -584 -13 -15 -9
-16 -302 28 -371 56 -949 119 -1263 137 -62 4 -118 12 -126 18 -7 6 -71 97
-141 201 -222 329 -512 722 -759 1030 -53 66 -96 127 -96 136 0 21 233 283
473 533 746 776 1420 1235 1932 1316 91 14 242 4 316 -20z m-2810 -2241 c224
-281 686 -915 675 -927 -3 -2 -365 -5 -806 -6 -646 -1 -800 1 -800 12 0 44
768 1072 800 1072 6 0 64 -68 131 -151z m808 -1257 l95 -7 32 -45 c49 -68 260
-407 401 -644 224 -376 603 -1074 603 -1111 0 -20 -181 -367 -358 -685 -208
-374 -635 -1076 -674 -1108 -51 -41 -2025 -40 -2076 1 -19 15 -281 432 -429
682 -281 475 -603 1068 -603 1110 0 19 188 380 356 681 201 363 638 1080 677
1112 25 21 477 30 1187 25 382 -2 737 -8 789 -11z m-2385 -41 c3 -4 -9 -32
-28 -62 -18 -30 -89 -146 -158 -259 -155 -256 -341 -580 -491 -860 -64 -118
-120 -216 -126 -218 -18 -6 -244 484 -417 906 -111 268 -131 329 -119 341 20
20 657 102 1125 145 183 17 208 18 214 7z m3145 -11 c434 -39 1066 -121 1085
-140 26 -26 -498 -1240 -536 -1240 -7 0 -60 89 -118 198 -142 266 -366 656
-543 946 -80 132 -144 243 -141 248 7 10 -9 11 253 -12z m-4746 -345 c156
-401 332 -806 517 -1194 l102 -214 -93 -191 c-184 -380 -361 -786 -504 -1151
-43 -110 -84 -205 -92 -211 -10 -9 -69 0 -246 36 -1621 336 -2655 897 -2713
1474 -19 187 105 421 321 607 467 401 1315 731 2500 973 66 13 127 23 135 23
8 -1 37 -60 73 -152z m6834 10 c1048 -263 1811 -626 2119 -1009 183 -228 217
-431 110 -650 -224 -457 -1010 -874 -2217 -1177 -323 -81 -666 -149 -682 -135
-8 6 -44 90 -82 186 -147 378 -370 886 -544 1238 -58 119 -60 125 -47 155 8
18 66 140 129 272 157 329 278 606 418 954 65 162 123 297 129 301 15 9 415
-72 667 -135z m-5933 -1963 c173 -325 383 -688 654 -1131 28 -46 49 -88 46
-93 -6 -10 -13 -9 -354 23 -353 32 -956 109 -981 125 -5 3 -9 10 -9 15 0 31
240 604 390 935 111 241 138 294 153 294 6 0 52 -76 101 -168z m4473 31 c208
-439 476 -1084 457 -1103 -18 -18 -581 -92 -984 -129 -341 -32 -348 -33 -354
-23 -3 5 47 94 111 198 224 367 433 731 608 1062 39 72 76 132 83 132 7 0 43
-62 79 -137z m-5028 -1428 c381 -59 930 -121 1286 -145 88 -6 169 -13 180 -15
13 -3 60 -63 130 -167 229 -339 533 -753 789 -1073 53 -66 96 -127 96 -135 0
-18 -131 -169 -358 -413 -997 -1073 -1925 -1611 -2412 -1399 -155 68 -279 232
-346 459 -77 264 -87 688 -28 1128 62 462 179 943 376 1545 70 213 82 240 107
240 10 0 91 -11 180 -25z m5609 13 c5 -7 39 -103 75 -213 311 -948 443 -1665
416 -2268 -29 -629 -279 -958 -702 -923 -469 39 -1076 414 -1793 1109 -255
247 -684 715 -684 747 0 8 43 69 96 135 256 320 560 734 789 1073 70 104 117
164 130 167 11 2 117 11 235 20 382 28 924 90 1255 144 137 23 170 24 183 9z
m-2102 -210 c17 -18 -775 -1078 -806 -1078 -31 0 -820 1056 -806 1079 5 7
1605 6 1612 -1z"/>
<path d="M6288 6340 c-253 -46 -463 -224 -544 -462 -27 -77 -29 -94 -29 -228
1 -138 3 -149 32 -228 80 -210 236 -359 451 -430 66 -22 95 -25 202 -25 107 0
136 3 202 25 215 71 371 220 451 430 29 79 31 90 32 228 0 134 -2 151 -29 228
-72 210 -244 375 -461 442 -79 24 -232 34 -307 20z"/>
</g>
</svg>
